<?xml version="1.0" encoding="utf-8"?>
<!-- Generator: Adobe Illustrator 18.1.0, SVG Export Plug-In . SVG Version: 6.00 Build 0)  -->
<svg version="1.1" id="Layer_1" xmlns="http://www.w3.org/2000/svg" xmlns:xlink="http://www.w3.org/1999/xlink" x="0px" y="0px"
	 viewBox="31 31 38 38" enable-background="new 31 31 38 38" xml:space="preserve">
<path fill="#EFC75E" d="M69,50c0,1.4-2,2.6-2.3,3.9c-0.3,1.4,1,3.3,0.4,4.5c-0.6,1.3-2.9,1.4-3.8,2.5c-0.8,1.1-0.5,3.4-1.5,4.3
	c-1.1,0.9-3.2,0-4.4,0.6c-1.2,0.6-1.9,2.9-3.2,3.2c-1.3,0.3-2.8-1.5-4.2-1.5s-2.9,1.8-4.2,1.5c-1.3-0.3-2-2.6-3.2-3.2
	c-1.2-0.6-3.4,0.3-4.4-0.6c-1.1-0.9-0.7-3.2-1.5-4.3c-0.8-1.1-3.2-1.2-3.8-2.5c-0.6-1.2,0.8-3.2,0.4-4.5C33,52.6,31,51.4,31,50
	c0-1.4,2-2.6,2.3-3.9c0.3-1.4-1-3.3-0.4-4.5c0.6-1.3,2.9-1.4,3.8-2.5c0.8-1.1,0.5-3.4,1.5-4.3c1.1-0.9,3.2,0,4.4-0.6
	c1.2-0.6,1.9-2.9,3.2-3.2c1.3-0.3,2.8,1.5,4.2,1.5s2.9-1.8,4.2-1.5c1.3,0.3,2,2.6,3.2,3.2c1.2,0.6,3.4-0.3,4.4,0.6
	c1.1,0.9,0.7,3.2,1.5,4.3c0.8,1.1,3.2,1.2,3.8,2.5c0.6,1.2-0.8,3.2-0.4,4.5C67,47.4,69,48.6,69,50z"/>
</svg>
