<?xml version="1.0" encoding="utf-8"?>
<!-- Generator: Adobe Illustrator 19.1.0, SVG Export Plug-In . SVG Version: 6.00 Build 0)  -->
<!DOCTYPE svg PUBLIC "-//W3C//DTD SVG 1.1//EN" "http://www.w3.org/Graphics/SVG/1.1/DTD/svg11.dtd">
<svg version="1.1" xmlns="http://www.w3.org/2000/svg" xmlns:xlink="http://www.w3.org/1999/xlink" x="0px" y="0px"
	 viewBox="0 0 1000 1000" enable-background="new 0 0 1000 1000" xml:space="preserve">
<g id="Layer_2">
	<rect x="1" y="1" fill="#A01E19" width="999" height="999"/>
</g>
<g id="Layer_1">
	<circle fill="#FCA12A" cx="503.1" cy="633.4" r="117.3"/>
	<path fill="none" stroke="#FFFFFF" stroke-width="6" stroke-miterlimit="10" d="M660.3,626.5c0-86.9-70.2-157.3-157-157.6
		c-85.2-0.3-155.8,67.9-158.1,153.1c-1.9,67.3,38.9,125.4,96.4,149.8c4.4,1.9,7.3,6.2,7.3,10.9v93.8c0,24.3,19.9,44.2,44.2,44.2
		h19.2c24.3,0,44-19.7,44-44v-93.9c0-4.8,2.9-9.1,7.3-10.9C620.6,748,660.3,691.9,660.3,626.5z"/>
	<path fill="none" stroke="#FFFFFF" stroke-width="6" stroke-miterlimit="10" d="M518.5,919.5c0,7.4-6,13.4-13.4,13.4
		s-13.4-6-13.4-13.4"/>
	<line fill="none" stroke="#FFFFFF" stroke-width="6" stroke-miterlimit="10" x1="450" y1="885" x2="557" y2="885"/>
	<line fill="none" stroke="#FFFFFF" stroke-width="6" stroke-miterlimit="10" x1="450" y1="870" x2="557" y2="870"/>
	<line fill="none" stroke="#FFFFFF" stroke-width="6" stroke-miterlimit="10" x1="450" y1="854" x2="557" y2="854"/>
	<line fill="none" stroke="#FFFFFF" stroke-width="6" stroke-miterlimit="10" x1="450" y1="839" x2="557" y2="839"/>
	<line fill="none" stroke="#FFFFFF" stroke-width="6" stroke-miterlimit="10" x1="450" y1="824" x2="557" y2="824"/>
	<line fill="none" stroke="#FFFFFF" stroke-width="6" stroke-miterlimit="10" x1="450" y1="809" x2="557" y2="809"/>
	<line fill="none" stroke="#FFFFFF" stroke-width="6" stroke-miterlimit="10" x1="502" y1="809" x2="502" y2="741"/>
	<path fill="none" stroke="#FFFFFF" stroke-width="6" stroke-miterlimit="10" d="M515.3,809.3c0,0,0.8-187.2,64.8-187.2"/>
	<path fill="none" stroke="#FFFFFF" stroke-width="6" stroke-miterlimit="10" d="M491.6,809.3c0,0-0.8-187.2-64.8-187.2"/>
	<g>
		<path fill="none" stroke="#FFFFFF" stroke-width="6" stroke-miterlimit="10" d="M426.8,618.2c12.8,0,12.8,30,25.5,30
			c12.8,0,12.8-30,25.5-30c12.8,0,12.8,30,25.5,30c12.8,0,12.8-30,25.5-30c12.8,0,12.8,30,25.5,30c12.8,0,12.8-30,25.5-30"/>
	</g>
</g>
<g id="Layer_3">
	
		<line fill="none" stroke="#FCA12A" stroke-width="5" stroke-linecap="round" stroke-miterlimit="10" x1="500.5" y1="442" x2="500.5" y2="350"/>
	
		<line fill="none" stroke="#FCA12A" stroke-width="5" stroke-linecap="round" stroke-miterlimit="10" x1="419.7" y1="411.6" x2="403.9" y2="368.2"/>
	
		<line fill="none" stroke="#FCA12A" stroke-width="5" stroke-linecap="round" stroke-miterlimit="10" x1="435.5" y1="455" x2="426.8" y2="431"/>
	
		<line fill="none" stroke="#FCA12A" stroke-width="5" stroke-linecap="round" stroke-miterlimit="10" x1="366.4" y1="474.8" x2="319.4" y2="418.7"/>
	
		<line fill="none" stroke="#FCA12A" stroke-width="5" stroke-linecap="round" stroke-miterlimit="10" x1="337.3" y1="541.4" x2="272" y2="503.7"/>
	
		<line fill="none" stroke="#FCA12A" stroke-width="5" stroke-linecap="round" stroke-miterlimit="10" x1="316" y1="604.3" x2="225" y2="588.2"/>
	
		<line fill="none" stroke="#FCA12A" stroke-width="5" stroke-linecap="round" stroke-miterlimit="10" x1="317.5" y1="670.6" x2="251.5" y2="682.3"/>
	
		<line fill="none" stroke="#FCA12A" stroke-width="5" stroke-linecap="round" stroke-miterlimit="10" x1="274.6" y1="771.2" x2="261.6" y2="778.7"/>
	
		<line fill="none" stroke="#FCA12A" stroke-width="5" stroke-linecap="round" stroke-miterlimit="10" x1="341.6" y1="732.5" x2="293.8" y2="760.1"/>
	
		<line fill="none" stroke="#FCA12A" stroke-width="5" stroke-linecap="round" stroke-miterlimit="10" x1="370.4" y1="800.3" x2="337.3" y2="839.8"/>
	
		<line fill="none" stroke="#FCA12A" stroke-width="5" stroke-linecap="round" stroke-miterlimit="10" x1="631.2" y1="776.8" x2="678.2" y2="832.8"/>
	
		<line fill="none" stroke="#FCA12A" stroke-width="5" stroke-linecap="round" stroke-miterlimit="10" x1="684" y1="731.5" x2="752.8" y2="771.2"/>
	
		<line fill="none" stroke="#FCA12A" stroke-width="5" stroke-linecap="round" stroke-miterlimit="10" x1="694" y1="662.1" x2="785" y2="678.1"/>
	
		<line fill="none" stroke="#FCA12A" stroke-width="5" stroke-linecap="round" stroke-miterlimit="10" x1="739.9" y1="588.2" x2="783.5" y2="579.7"/>
	
		<line fill="none" stroke="#FCA12A" stroke-width="5" stroke-linecap="round" stroke-miterlimit="10" x1="684" y1="599.2" x2="723.8" y2="591.4"/>
	
		<line fill="none" stroke="#FCA12A" stroke-width="5" stroke-linecap="round" stroke-miterlimit="10" x1="668.4" y1="533.8" x2="730.2" y2="498.2"/>
	
		<line fill="none" stroke="#FCA12A" stroke-width="5" stroke-linecap="round" stroke-miterlimit="10" x1="624.5" y1="483.9" x2="684" y2="413.1"/>
	
		<line fill="none" stroke="#FCA12A" stroke-width="5" stroke-linecap="round" stroke-miterlimit="10" x1="572.7" y1="434.6" x2="597.9" y2="365.2"/>
</g>
</svg>
