<?xml version="1.0" encoding="utf-8"?>
<!-- Generator: Adobe Illustrator 18.0.0, SVG Export Plug-In . SVG Version: 6.00 Build 0)  -->
<!DOCTYPE svg PUBLIC "-//W3C//DTD SVG 1.1//EN" "http://www.w3.org/Graphics/SVG/1.1/DTD/svg11.dtd">
<svg version="1.1" id="Layer_1" xmlns="http://www.w3.org/2000/svg" xmlns:xlink="http://www.w3.org/1999/xlink" x="0px" y="0px"
	 width="40px" height="40px" viewBox="0 0 40 40" enable-background="new 0 0 40 40" xml:space="preserve">
<path fill="#35A2B2" d="M20,0C8.954,0,0,8.955,0,20c0,11.046,8.954,20,20,20c11.045,0,20-8.954,20-20C40,8.955,31.045,0,20,0z"/>
<path fill="#D07C40" d="M7.602,11.994H32.41v19.99H7.626C7.626,31.984,7.602,11.994,7.602,11.994z"/>
<path fill="#EFC75E" d="M33.601,16.806c0,0.01-27.178-0.008-27.203,0v15.168c0,0.002-0.003,1.2-0.007,2.677
	C9.961,37.968,14.742,40,20,40c5.249,0,10.023-2.024,13.591-5.331c-0.012-1.484-0.023-2.689-0.022-2.69
	C33.569,25.688,33.601,16.806,33.601,16.806z M30.008,13.604v2.608l2.402-0.468v-3.75L30.008,13.604z M10.004,16.009v-2.406
	l-2.402-1.61v3.994L10.004,16.009z"/>
<path fill="#DBA250" d="M10.004,16.806v-3.202l-3.606,3.202H10.004z M30.008,13.604v3.202h3.592L30.008,13.604z"/>
<path fill="#CBA950" d="M28.426,23.823c0-0.335-0.29-0.634-0.625-0.634s-0.66,0.299-0.66,0.634c-0.002,4.063-3.056,7.357-7.12,7.357
	c-4.064,0-7.198-3.293-7.2-7.357c0-0.335-0.284-0.634-0.62-0.634s-0.663,0.299-0.663,0.634c0,4.774,3.71,8.643,8.484,8.643
	C24.795,32.466,28.426,28.597,28.426,23.823z"/>
<path fill="#D07C40" d="M12.189,21.195c-0.548,0-0.992,0.444-0.992,0.992c0,0.548,0.444,0.992,0.992,0.992
	c0.548,0,1.005-0.444,1.005-0.992C13.193,21.64,12.736,21.195,12.189,21.195z M27.789,21.195c-0.548,0-0.992,0.444-0.992,0.992
	c0,0.548,0.444,0.992,0.992,0.992c0.548,0,1.005-0.444,1.005-0.992C28.793,21.64,28.336,21.195,27.789,21.195z"/>
<path fill="#FFFFFF" d="M28.426,22.623c0-0.335-0.29-0.634-0.625-0.634s-0.66,0.299-0.66,0.634c-0.002,4.063-3.056,7.357-7.12,7.357
	c-4.064,0-7.198-3.293-7.2-7.357c0-0.335-0.284-0.634-0.62-0.634s-0.663,0.299-0.663,0.634c0,4.774,3.71,8.643,8.484,8.643
	C24.795,31.266,28.426,27.397,28.426,22.623z"/>
</svg>
